<svg xmlns="http://www.w3.org/2000/svg" viewBox="0 0 512 512">
  <title>icon</title>
  <path fill="#222222" d="M 256 6 L 6 131 L 6 381 L 256 506 L 506 381 L 506 131 L 256 6 z M 246.72266 26 L 246.72266 105.375 L 107.89648 172.77539 L 106.78906 173.32422 L 30.070312 134.15625 L 246.72266 26 z M 265.27734 26 L 481.92969 134.15625 L 405.21094 173.26367 L 404.10352 172.71289 L 265.27734 105.375 L 265.27734 26 z M 21 148.45508 L 98.271484 187.86719 L 98.271484 329.63086 L 21 362.98438 L 21 148.45508 z M 491 148.45508 L 491 362.98438 L 413.72852 329.63086 L 413.72852 187.86719 L 491 148.45508 z M 220 166 L 265 166 C 283 166 310 184.14404 310 211 L 310 238 C 337 238 346 247.00001 346 274 L 346 292 C 345.81101 323.21199 323.365 346 292 346 L 220 346 C 188.61698 346 166 323.20298 166 292 L 166 220 C 166 188.72501 188.61698 166 220 166 z M 224.5 211 C 217.048 211 211 217.04797 211 224.5 C 211 231.95199 217.048 238 224.5 238 L 260.5 238 C 267.95199 238 274 231.95199 274 224.5 C 274 217.04797 267.95199 211 260.5 211 L 224.5 211 z M 224.5 274 C 217.048 274 211 280.04797 211 287.5 C 211 294.95202 217.048 301 224.5 301 L 287.5 301 C 294.95199 301 301 294.95202 301 287.5 C 301 280.04797 294.95199 274 287.5 274 L 224.5 274 z M 105.02734 343.95898 L 246.72266 407.875 L 246.72266 486 L 29.470703 378.5332 L 105.02734 343.95898 z M 404.90234 343.95898 L 482.5293 378.5332 L 265.27734 486 L 265.27734 407.875 L 404.90234 343.95898 z"/>
</svg>